/vscmnt/brussel_pixiu_data/_data_brussel/112/vsc11236/PredSimResults/SUBJ06mtu3D/worker1.mot
version=1
nRows=9
nColumns=50
inDegrees=yes
endheader
                time	         pelvis_tilt	         pelvis_list	     pelvis_rotation	           pelvis_tx	           pelvis_ty	           pelvis_tz	       hip_flexion_r	     hip_adduction_r	      hip_rotation_r	        knee_angle_r	       ankle_angle_r	         mtp_angle_r	       hip_flexion_l	     hip_adduction_l	      hip_rotation_l	        knee_angle_l	       ankle_angle_l	         mtp_angle_l	    lumbar_extension	      lumbar_bending	     lumbar_rotation	 ercspn_r/activation	 intobl_r/activation	 extobl_r/activation	    abd_r/activation	    add_r/activation	hamstrings_r/activation	bifemsh_r/activation	glut_max_r/activation	iliopsoas_r/activation	rect_fem_r/activation	  vasti_r/activation	gastroc_r/activation	 soleus_r/activation	tib_ant_r/activation	 ercspn_l/activation	 intobl_l/activation	 extobl_l/activation	    abd_l/activation	    add_l/activation	hamstrings_l/activation	bifemsh_l/activation	glut_max_l/activation	iliopsoas_l/activation	rect_fem_l/activation	  vasti_l/activation	gastroc_l/activation	 soleus_l/activation	tib_ant_l/activation	
          1.90208370	         -5.58018746	          1.22011069	         -7.37104960	          2.13033375	          0.93089090	          0.01353780	        -12.00155885	         -0.80629858	          3.40171713	         -8.20977406	          9.30228316	         30.51933938	         30.48170783	         -1.25606881	         -3.78082908	         -4.67371632	          3.02385735	          0.22284013	         -6.61672178	          1.14496745	         -2.39297805	          0.07040370	          0.01000106	          0.01000161	          0.05624773	          0.01002827	          0.02042090	          0.14634346	          0.04914268	          0.40174965	          0.01001536	          0.01000447	          0.39767494	          0.33083700	          0.01854484	          0.13617304	          0.17993087	          0.01000262	          0.01000333	          0.10827230	          0.13974222	          0.26107862	          0.01383657	          0.16022801	          0.01000409	          0.01000104	          0.02894897	          0.01000120	          0.42488853	
          1.91476426	         -5.65163664	          1.15781474	         -7.40082187	          2.14763252	          0.92888288	          0.01279559	        -12.43607245	         -0.85574785	          2.96367806	         -9.19352240	          8.48109337	         32.45868721	         30.55113142	         -1.10781810	         -3.53009733	         -6.37295940	          2.59126705	          0.20811796	         -6.29709472	          0.90467490	         -2.05622614	          0.10356177	          0.01000107	          0.01000160	          0.04643430	          0.05539743	          0.01705856	          0.12081182	          0.04056922	          0.42138818	          0.01015642	          0.01542843	          0.36998359	          0.30980269	          0.01530937	          0.11482276	          0.15567744	          0.01000174	          0.01000051	          0.13948390	          0.12720549	          0.21553250	          0.07057924	          0.13227324	          0.01000868	          0.01000125	          0.02624627	          0.01815123	          0.43381572	
          1.92744482	         -5.70760582	          1.09954882	         -7.38223020	          2.16524331	          0.92716110	          0.01195717	        -12.71986221	         -0.90464951	          2.49817122	        -10.48712545	          7.49893364	         34.46037755	         30.45105652	         -0.97454951	         -3.25876861	         -7.98220945	          2.20043915	          0.19672157	         -5.96740504	          0.64908672	         -1.71347052	          0.09244358	          0.01000082	          0.01000197	          0.03833299	          0.04573527	          0.01745840	          0.09973463	          0.03349135	          0.43163931	          0.01002376	          0.02607971	          0.33812751	          0.28544351	          0.01263840	          0.11655777	          0.12852104	          0.01000174	          0.05925748	          0.12229709	          0.11603374	          0.17793903	          0.10226966	          0.10919570	          0.01000137	          0.01000046	          0.02166729	          0.01498455	          0.51479983	
          1.94012538	         -5.74992613	          1.03105468	         -7.31370526	          2.18291507	          0.92591194	          0.01100965	        -12.77332215	         -0.93618192	          2.00523102	        -12.19046591	          6.31184410	         36.50259544	         30.24584629	         -0.83924932	         -3.04535156	         -9.39092572	          1.62770116	          0.17105870	         -5.65810338	          0.39527107	         -1.37441030	          0.12543543	          0.01000098	          0.01000161	          0.03164510	          0.07698761	          0.03124038	          0.08233478	          0.02764826	          0.43535484	          0.01463975	          0.02153075	          0.28618439	          0.23866530	          0.01043348	          0.13050901	          0.10609873	          0.01000154	          0.11661013	          0.18081213	          0.10258376	          0.14689622	          0.14148667	          0.09014448	          0.01000167	          0.01000055	          0.01788727	          0.01237047	          0.55338874	
          1.95280594	         -5.77669029	          0.95733410	         -7.20083040	          2.20045819	          0.92525336	          0.00997206	        -12.50280373	         -0.95530823	          1.48028952	        -14.45175606	          4.94030114	         38.46840783	         30.00817833	         -0.69578051	         -2.87290756	        -10.79966735	          1.28802078	          0.13571081	         -5.38608366	          0.13633562	         -1.04241977	          0.16198415	          0.01000107	          0.01000153	          0.02612402	          0.12395568	          0.02699867	          0.06797094	          0.02282456	          0.42364409	          0.01209784	          0.01777451	          0.23625415	          0.19702574	          0.01000026	          0.14019702	          0.08758822	          0.01000130	          0.16671508	          0.22077806	          0.09186143	          0.12126854	          0.18656567	          0.07441710	          0.01000253	          0.01002865	          0.01476699	          0.01210792	          0.56388572	
          1.96548649	         -5.78723553	          0.88484121	         -7.04618540	          2.21769393	          0.92527962	          0.00886913	        -11.83166747	         -0.97187157	          0.91157830	        -17.37776321	          3.39755197	         40.14410997	         29.76920819	         -0.54252029	         -2.72684196	        -12.25531262	          1.25787756	          0.10866397	         -5.16339886	         -0.13567984	         -0.72170291	          0.18949974	          0.01000128	          0.01000155	          0.02156620	          0.18469079	          0.02739547	          0.05611420	          0.01884242	          0.38792950	          0.01000546	          0.01467351	          0.19503505	          0.16265084	          0.01000065	          0.14166229	          0.07230719	          0.01000119	          0.19377791	          0.23549343	          0.08547130	          0.10011230	          0.19610928	          0.06143367	          0.01000222	          0.05584312	          0.01219106	          0.01000449	          0.56219475	
          1.97816705	         -5.78317074	          0.81355598	         -6.85270638	          2.23453177	          0.92603829	          0.00772955	        -10.74292546	         -0.99676155	          0.28756057	        -20.96998852	          1.74041293	         41.11268995	         29.45842930	         -0.37585233	         -2.57869703	        -13.59036417	          1.41456599	          0.08706266	         -4.99209012	         -0.42004576	         -0.41491502	          0.19603364	          0.01000159	          0.01000168	          0.01780358	          0.20579074	          0.02272815	          0.04633005	          0.01555504	          0.33437286	          0.01000327	          0.01211355	          0.16100741	          0.13427327	          0.01000061	          0.13893296	          0.05969230	          0.01000133	          0.19899705	          0.21492177	          0.07973927	          0.08264742	          0.18635484	          0.05071546	          0.01000194	          0.09547509	          0.01006477	          0.01000250	          0.54216520	
          1.99084761	         -5.76685529	          0.73866488	         -6.62342896	          2.25095650	          0.92749148	          0.00658300	         -9.27337115	         -1.04238352	         -0.38391353	        -25.14101016	          0.00993119	         41.00438885	         29.01668690	         -0.19908737	         -2.40692493	        -14.69738018	          1.76456548	          0.07557130	         -4.86832377	         -0.71078497	         -0.12544502	          0.19731158	          0.01000163	          0.01000212	          0.01469742	          0.20699443	          0.01878819	          0.03879573	          0.01284121	          0.27603623	          0.01000283	          0.01000042	          0.13291655	          0.11084671	          0.01000035	          0.13231990	          0.04927851	          0.01000139	          0.19412300	          0.17742579	          0.07595981	          0.06822981	          0.17003346	          0.04186724	          0.01000171	          0.13385556	          0.01000189	          0.01000211	          0.50584713	
          2.00352817	         -5.74162269	          0.65546916	         -6.35894837	          2.26698175	          0.92957090	          0.00545436	         -7.49585085	         -1.11613698	         -1.07380807	        -29.67710946	         -1.99963446	         39.94736867	         28.40326252	         -0.01856583	         -2.20516471	        -15.49685321	          2.29034815	          0.09259750	         -4.78601355	         -1.00150062	          0.14130821	          0.20538606	          0.01000110	          0.01000211	          0.01213320	          0.20370767	          0.01552784	          0.08225008	          0.01060087	          0.22787668	          0.01000226	          0.01000017	          0.10972671	          0.09150737	          0.01000680	          0.11165229	          0.04068168	          0.01000124	          0.18565520	          0.14647088	          0.07406607	          0.05632750	          0.15218401	          0.03456276	          0.01000195	          0.16268797	          0.01000227	          0.01000218	          0.46113627	
